# xmcd
#
# Track frame offsets:
# 150
# 4700
# 14379
# 32808
# 50369
# 60424
# 72705
# 88836
# 103564
# 115151
# 128944
# 136662
# 145173
# 164660
# 173167
# 184527
# 198765
# 210178
# 224496
# 241250
# 254593
# 273688
#
# Disc length: 3751 seconds
#
#
# Revision: 1
# Processed by: cddbd v1.5.2PL0 Copyright (c) Steve Scherf et al.
# Submitted via: FreeRIP 2.12 
#
DISCID=3f0ea516
DTITLE=Alma Serrana - A Festa Ao Vivo
DYEAR=2004
DGENRE=Vanera
TTITLE0=Rédeas do Possante
TTITLE1=Festa do Alma
TTITLE2=Tô de Buzão
TTITLE3=Sou Louco Por Amor
TTITLE4=A Jiripoca Vai Piá
TTITLE5=Batidão da Paixão
TTITLE6=Pout-Pourri - De Cara Cheia - Pedaços de Mim
TTITLE7=Marvada - A Malvada
TTITLE8=Segura Essa Danada
TTITLE9=Alagados
TTITLE10=Vamo Namorá
TTITLE11=Prá Poder Te Namorar
TTITLE12=Dong Dong - No Toque da Guitarra
TTITLE13=Fio de Cabelo
TTITLE14=Paixão Proibida
TTITLE15=Bailanta no Povoado
TTITLE16=E Faz Que Vai
TTITLE17=O Amor é Assim
TTITLE18=Sem Seu Amor
TTITLE19=Cara Metage
TTITLE20=Recado Meu - Tchau Amor
TTITLE21=Vaneira do Tam Tam
EXTD=
EXTT0=
EXTT1=
EXTT2=
EXTT3=
EXTT4=
EXTT5=
EXTT6=
EXTT7=
EXTT8=
EXTT9=
EXTT10=
EXTT11=
EXTT12=
EXTT13=
EXTT14=
EXTT15=
EXTT16=
EXTT17=
EXTT18=
EXTT19=
EXTT20=
EXTT21=
PLAYORDER=
